<svg id="Capa_1" enable-background="new 0 0 512 512" height="512" viewBox="0 0 512 512" width="512" xmlns="http://www.w3.org/2000/svg"><g><path d="m256 99.98 57.634 122.677-57.634 183.133c-84.31 0-152.91-68.59-152.91-152.9 0-84.32 68.6-152.91 152.91-152.91z" fill="#ffb100"/><path d="m408.91 252.89c0 5.57-.3 11.07-.89 16.49-8.24 76.59-73.28 136.41-152.02 136.41v-305.81c84.31 0 152.91 68.59 152.91 152.91z" fill="#ff9100"/><path d="m256 0 10.5 32-10.5 32c-8.28 0-15-6.72-15-15v-34c0-8.28 6.72-15 15-15z" fill="#ffb100"/><g><path d="m271 15v34c0 8.28-6.72 15-15 15v-64c8.28 0 15 6.72 15 15z" fill="#ff9100"/></g><g fill="#ffb100"><path d="m148.49 39.788c-4.142-7.176-13.317-9.634-20.49-5.49-7.175 4.143-9.633 13.316-5.49 20.49l17 29.444c2.778 4.813 7.82 7.503 13.004 7.503 2.545 0 5.124-.648 7.486-2.013 7.175-4.143 9.633-13.316 5.49-20.49z"/><path d="m84.232 139.51-29.444-17c-7.175-4.144-16.349-1.686-20.49 5.49-4.143 7.174-1.685 16.348 5.49 20.49l29.444 17c2.362 1.364 4.941 2.013 7.486 2.013 5.184 0 10.226-2.69 13.004-7.503 4.143-7.174 1.685-16.348-5.49-20.49z"/><path d="m49 241h-34c-8.284 0-15 6.716-15 15s6.716 15 15 15h34c8.284 0 15-6.716 15-15s-6.716-15-15-15z"/></g><path d="m246.66 290.46c2.41-6.42 5.55-12.57 9.34-18.31l41.351 129.365-41.351 110.485h-181.84c-40.89 0-74.16-33.27-74.16-74.16s33.27-74.16 74.16-74.16h4.29c9.99-51.49 55.53-90.05 109.28-90.05 21.17 0 41.43 5.87 58.93 16.83z" fill="#e6fbff"/><path d="m512 437.84c0 40.89-33.27 74.16-74.16 74.16h-181.84v-239.85c3.99-6.06 8.73-11.68 14.15-16.73 17.11-15.95 39.42-24.74 62.83-24.74 30.91 0 58.32 15.29 75.04 38.7 10.8 15.1 17.16 33.57 17.16 53.5 0 14.42-3.27 28.29-9.46 40.8h22.12c40.89 0 74.16 33.27 74.16 74.16z" fill="#b3f2ff"/><path d="m497 241h-34c-8.284 0-15 6.716-15 15s6.716 15 15 15h34c8.284 0 15-6.716 15-15s-6.716-15-15-15z" fill="#ff9100"/><path d="m477.702 128c-4.142-7.175-13.316-9.633-20.49-5.49l-29.444 17c-7.175 4.143-9.633 13.316-5.49 20.49 2.778 4.813 7.82 7.503 13.004 7.503 2.545 0 5.124-.648 7.486-2.013l29.444-17c7.175-4.142 9.633-13.316 5.49-20.49z" fill="#ff9100"/><path d="m384 34.298c-7.175-4.144-16.349-1.686-20.49 5.49l-17 29.444c-4.143 7.174-1.685 16.348 5.49 20.49 2.362 1.364 4.941 2.013 7.486 2.013 5.184 0 10.226-2.69 13.004-7.503l17-29.444c4.143-7.174 1.685-16.348-5.49-20.49z" fill="#ff9100"/></g></svg>